<?xml version="1.0" standalone="no"?>
<!DOCTYPE svg PUBLIC "-//W3C//DTD SVG 20010904//EN"
 "http://www.w3.org/TR/2001/REC-SVG-20010904/DTD/svg10.dtd">
<svg version="1.0" xmlns="http://www.w3.org/2000/svg"
 width="736.000000pt" height="640.000000pt" viewBox="0 0 736.000000 640.000000"
 preserveAspectRatio="xMidYMid meet">

<g transform="translate(0.000000,640.000000) scale(0.100000,-0.100000)"
fill="#eebbbb" stroke="none">
<path d="M2896 4523 c-14 -15 -38 -59 -53 -98 -66 -174 -79 -207 -129 -313
-49 -103 -84 -206 -84 -245 0 -16 26 -47 38 -47 22 1 36 25 54 91 10 41 48
135 83 209 35 74 77 173 93 220 41 115 43 120 52 120 5 0 47 -23 93 -50 71
-42 94 -62 130 -114 25 -35 48 -73 52 -84 11 -35 105 -53 105 -20 0 13 330 4
339 -10 3 -5 63 -18 132 -28 119 -17 127 -17 143 -1 22 22 32 21 53 -3 26 -30
136 -29 161 1 57 71 83 97 151 149 42 32 89 69 104 84 32 30 60 46 79 46 20 0
114 -146 142 -221 44 -115 84 -196 100 -202 42 -16 66 25 41 73 -9 17 -32 72
-51 123 -40 106 -103 214 -155 269 -29 30 -43 38 -72 38 -50 0 -86 -16 -127
-54 -19 -18 -72 -62 -118 -96 -46 -34 -98 -83 -115 -107 l-32 -44 -107 6 c-59
3 -160 15 -225 26 -198 35 -233 39 -362 39 -138 0 -125 -6 -186 86 -28 43 -53
62 -139 113 -132 77 -155 82 -190 44z"/>
<path d="M4844 3950 c-34 -11 -47 -30 -38 -55 7 -17 10 -18 79 -20 28 -1 106
-6 175 -10 112 -7 128 -6 143 9 19 20 20 25 7 46 -7 11 -36 17 -107 21 -54 4
-127 9 -163 13 -36 3 -79 1 -96 -4z"/>
<path d="M2201 3831 c-23 -23 -25 -30 -12 -49 6 -10 49 -15 163 -18 134 -4
158 -3 172 11 20 20 20 29 0 49 -10 10 -33 16 -62 16 -26 0 -90 3 -143 6 -89
6 -98 5 -118 -15z"/>
<path d="M2978 3743 c-33 -21 -48 -53 -48 -103 0 -27 7 -47 20 -60 23 -23 84
-27 124 -9 34 16 61 69 52 103 -10 39 -61 86 -94 86 -15 0 -39 -8 -54 -17z"/>
<path d="M4497 3709 c-11 -6 -25 -26 -33 -44 -12 -30 -12 -39 5 -78 24 -56 64
-75 121 -58 51 15 94 65 86 100 -4 14 -8 37 -10 50 -2 13 -10 27 -17 32 -20
12 -130 11 -152 -2z"/>
<path d="M3470 3630 c-28 -28 -28 -108 1 -144 49 -62 111 -71 199 -26 35 18
61 26 65 20 14 -22 86 -50 129 -50 63 0 124 26 141 61 29 56 12 139 -28 139
-28 -1 -41 -20 -42 -62 0 -41 -2 -43 -36 -52 -53 -13 -80 -2 -139 54 -29 27
-55 50 -59 50 -18 -1 -34 -21 -40 -50 -5 -28 -14 -36 -48 -49 -40 -14 -44 -14
-63 4 -18 16 -21 27 -16 57 4 26 2 41 -10 52 -20 21 -30 20 -54 -4z"/>
<path d="M4877 3625 c-10 -9 -17 -20 -17 -25 0 -19 32 -39 78 -49 27 -5 72
-19 101 -31 84 -33 181 -22 181 20 0 21 -34 40 -74 40 -23 0 -69 11 -102 24
-85 34 -146 42 -167 21z"/>
<path d="M2340 3560 c-83 -18 -116 -33 -142 -63 -22 -25 -22 -31 -2 -51 20
-21 48 -20 69 1 10 10 64 26 128 39 124 26 147 42 111 78 -19 20 -66 19 -164
-4z"/>
<path d="M4756 3374 c-9 -8 -16 -21 -16 -29 0 -22 -110 -115 -165 -140 -116
-52 -271 -90 -449 -110 -56 -6 -57 -7 -33 -20 14 -7 36 -13 49 -13 28 -1 75
-1 107 0 13 0 32 9 41 21 19 24 70 27 95 7 27 -23 63 -20 146 10 114 42 147
62 215 127 85 82 101 115 68 147 -8 9 -22 16 -29 16 -7 0 -21 -7 -29 -16z"/>
<path d="M2666 3314 c-33 -33 -19 -54 92 -131 144 -100 330 -170 558 -209 28
-5 33 -3 42 25 13 37 51 55 87 41 16 -6 34 -6 50 0 26 10 68 0 79 -19 4 -5 20
-17 37 -25 37 -18 65 -8 79 30 10 26 51 47 73 38 7 -2 27 2 43 11 35 18 43 18
-200 0 -147 -11 -219 -13 -279 -5 -43 5 -83 8 -86 5 -12 -7 -236 64 -304 96
-59 27 -164 95 -216 139 -29 24 -35 25 -55 4z"/>
<path d="M3868 3080 c13 -6 28 -23 33 -40 6 -16 17 -30 23 -30 30 0 74 23 79
41 3 10 16 23 29 28 16 7 -7 10 -82 10 -74 0 -98 -3 -82 -9z"/>
<path d="M2755 3034 c-55 -31 -115 -130 -115 -190 0 -82 85 -158 190 -171 72
-8 100 1 98 35 -1 15 2 38 6 51 l8 23 -30 -17 c-42 -25 -112 -13 -157 27 -43
37 -44 58 -4 120 29 45 40 54 64 48 6 -1 29 -4 53 -5 60 -5 72 -18 72 -78 l0
-51 28 27 c15 15 33 27 40 27 19 0 14 62 -8 97 -26 43 -66 62 -147 68 -53 4
-75 2 -98 -11z"/>
<path d="M4509 3043 c-20 -3 -27 -10 -26 -26 1 -12 -2 -32 -6 -44 -6 -16 -3
-23 12 -28 11 -3 28 -2 38 3 10 6 51 7 92 4 l73 -5 -6 -39 c-10 -58 -31 -95
-78 -128 -32 -24 -51 -30 -90 -30 -68 0 -87 12 -95 63 l-6 42 -14 -34 c-8 -18
-23 -35 -34 -38 -15 -4 -19 -11 -15 -28 5 -18 1 -24 -17 -29 -32 -8 -49 -7
-42 3 3 5 1 12 -4 15 -5 3 -7 14 -5 24 3 11 -4 21 -20 28 -22 10 -27 9 -42
-13 -9 -14 -14 -36 -11 -49 4 -22 -17 -42 -27 -25 -9 13 -61 3 -100 -19 -20
-11 -37 -16 -37 -12 -3 17 4 48 13 59 7 8 4 12 -9 11 -10 0 -26 3 -35 7 -13 5
-20 2 -24 -11 -3 -11 -10 -27 -15 -36 -11 -22 -12 -31 0 -24 12 8 -13 -62 -27
-76 -18 -18 -40 6 -23 26 21 26 -14 48 -73 45 l-51 -3 2 35 c2 32 0 34 -28 34
-33 0 -37 -8 -41 -89 -3 -56 -22 -71 -39 -32 -7 14 -21 29 -33 33 -29 9 -83 7
-98 -4 -28 -21 -43 -9 -40 30 3 28 0 37 -12 37 -9 0 -18 -1 -19 -2 -2 -2 -10
2 -18 9 -13 10 -14 7 -11 -20 4 -39 -33 -96 -51 -78 -6 6 -20 11 -30 11 -16 0
-19 5 -13 30 3 19 2 29 -4 25 -5 -3 -7 0 -4 8 9 25 -24 28 -41 4 -8 -12 -15
-17 -15 -12 0 5 -5 4 -12 -3 -7 -7 -30 -12 -53 -12 -23 0 -46 -5 -53 -12 -7
-7 -12 -9 -12 -5 0 4 -9 3 -20 -3 -26 -14 -25 -32 1 -50 12 -8 31 -23 43 -32
l21 -17 -37 -31 c-21 -17 -45 -48 -54 -68 -8 -20 -19 -44 -24 -52 -11 -21 17
-73 36 -66 9 3 12 1 9 -4 -3 -6 1 -10 9 -10 19 0 40 36 26 45 -17 10 -11 37
17 74 14 20 20 30 13 24 -8 -7 -19 -13 -25 -13 -5 0 -3 5 5 9 8 5 18 8 21 8 3
-1 13 4 22 11 13 11 19 8 42 -22 15 -20 31 -34 35 -31 4 2 5 -6 3 -18 -3 -16
8 -38 37 -72 33 -40 160 -275 160 -297 0 -3 -55 -8 -122 -10 -179 -6 -189 -14
-218 -161 -10 -48 -19 -65 -52 -95 -50 -46 -48 -45 -97 -32 -52 14 -62 34 -91
180 -22 108 -23 126 -14 290 5 96 8 180 6 187 -9 29 -55 24 -72 -7 -5 -10 -12
-102 -15 -206 -6 -176 -5 -197 18 -300 27 -125 48 -169 96 -201 36 -24 107
-39 145 -29 13 3 40 21 58 38 19 18 46 42 59 53 19 16 27 38 37 95 7 41 16 81
20 88 9 13 36 14 188 6 l100 -5 49 -100 c48 -97 69 -119 99 -102 8 4 45 51 82
103 37 52 68 96 69 98 2 1 46 -4 100 -12 70 -10 104 -11 121 -4 40 18 68 3 99
-54 80 -151 128 -198 204 -198 101 0 173 85 239 282 27 82 27 87 27 333 0 257
-4 299 -30 309 -45 17 -68 -32 -54 -111 6 -33 9 -137 7 -248 -4 -182 -6 -194
-36 -283 -33 -96 -78 -174 -112 -192 -53 -28 -100 7 -163 124 -60 114 -72 120
-223 126 l-124 5 43 65 c24 36 81 138 126 228 45 89 88 162 96 162 7 0 18 12
24 28 18 44 45 86 64 100 9 7 14 19 11 25 -4 7 -3 9 1 4 5 -4 19 2 31 14 21
20 99 45 89 29 -2 -4 5 -16 16 -26 21 -18 21 -18 39 4 15 18 28 22 73 22 46 0
63 6 115 40 73 46 111 111 119 199 4 48 2 60 -18 85 -12 16 -37 35 -55 42 -31
13 -124 16 -185 7z m-234 -313 c3 -6 -1 -7 -9 -4 -18 7 -21 14 -7 14 6 0 13
-4 16 -10z m-252 -65 c-3 -9 -8 -14 -10 -11 -3 3 -2 9 2 15 9 16 15 13 8 -4z
m153 -30 c7 -18 -25 -60 -48 -61 -10 -1 -18 2 -18 8 0 5 -4 7 -9 3 -5 -3 -12
-1 -15 4 -7 11 50 61 70 61 8 0 17 -7 20 -15z m-989 -2 c-4 -3 -1 -13 6 -22
11 -14 10 -14 -5 -2 -16 12 -16 31 -1 31 4 0 3 -3 0 -7z m166 -8 c-3 -9 -8
-14 -10 -11 -3 3 -2 9 2 15 9 16 15 13 8 -4z m530 -19 c3 -12 -52 -30 -61 -21
-9 9 29 36 46 33 7 -2 14 -7 15 -12z m-540 -42 c-3 -8 -9 -14 -14 -14 -14 0
-22 27 -14 48 6 16 7 16 20 -1 8 -11 11 -25 8 -33z m317 23 c0 -4 -6 -20 -15
-37 -14 -27 -14 -30 3 -39 9 -6 12 -11 5 -11 -6 0 -15 4 -18 10 -3 5 -19 7
-35 5 -94 -15 -88 -15 -83 6 9 31 80 79 114 76 16 -1 29 -6 29 -10z m48 -63
c-12 -12 -17 -13 -23 -3 -5 8 -4 10 4 5 6 -4 14 0 17 9 4 9 9 13 12 10 3 -3
-1 -13 -10 -21z m52 16 c8 -5 11 -10 5 -10 -5 0 -17 5 -25 10 -8 5 -10 10 -5
10 6 0 17 -5 25 -10z m-388 -36 c-2 -10 -8 -22 -13 -27 -5 -4 -7 -4 -4 -1 3 4
0 13 -6 20 -13 15 -2 37 14 31 7 -2 10 -13 9 -23z m728 2 c0 -2 -7 -7 -16 -10
-8 -3 -12 -2 -9 4 6 10 25 14 25 6z m-670 -36 c0 -5 -5 -10 -11 -10 -5 0 -7 5
-4 10 3 6 8 10 11 10 2 0 4 -4 4 -10z m687 -5 c0 -8 -4 -12 -9 -9 -5 3 -6 10
-3 15 9 13 12 11 12 -6z m-156 -16 c46 -6 87 -14 91 -18 10 -10 -86 -196 -160
-308 l-67 -103 -103 0 -103 0 -15 38 c-39 95 -118 250 -154 303 l-40 59 57 1
c32 0 117 9 188 19 160 22 199 23 306 9z m-201 -514 c0 -3 -13 -23 -29 -46
l-30 -40 -20 40 c-12 22 -21 43 -21 46 0 3 23 5 50 5 28 0 50 -2 50 -5z"/>
</g>
</svg>
